<svg style="vertical-align: middle;" fill="#2eab3f" id="sello_garantia_de_entrega" xmlns="http://www.w3.org/2000/svg" x="0px" y="0px" width="40px" height="40px" viewBox="0 0 198.425 238.11" enable-background="new 0 0 198.425 238.11" xml:space="preserve"><g>
<path d="M99.3,46.131c-30.461,0-55.154,24.693-55.154,55.155c0,30.462,24.693,55.156,55.154,55.156
		c30.459,0,55.153-24.693,55.153-55.156C154.453,70.824,129.76,46.131,99.3,46.131z M99.3,144.996
		c-24.141,0-43.71-19.568-43.71-43.71c0-24.141,19.569-43.71,43.71-43.71c24.139,0,43.708,19.57,43.708,43.71
		C143.008,125.428,123.439,144.996,99.3,144.996z"></path>
<g>
<path d="M37.951,114.154c0.75,0.987,1.974,2.923,2.676,5.032c0.97,2.915,0.938,5.268,0.005,7.21
			c-0.885,1.927-2.703,3.427-5.056,4.184c-5.316,1.744-9.635-1.109-11.378-6.346c-0.687-2.062-0.812-3.783-0.693-4.691l3.144-0.204
			c-0.087,1.003-0.033,2.195,0.551,3.949c1.002,3.009,3.465,4.716,6.925,3.564c3.294-1.097,4.551-3.806,3.565-6.767
			c-0.276-0.83-0.592-1.461-0.829-1.698l-3.341,1.112l0.82,2.464l-2.82,0.938l-1.98-5.948L37.951,114.154z"></path>
<path d="M33.815,108.333l4.391,0.909l0.263,3.937l-17.137-4.012l-0.333-4.983l16.447-6.329l0.273,4.086
			l-4.224,1.583L33.815,108.333z M30.69,104.261l-3.493,1.285c-0.977,0.365-2.203,0.748-3.183,1.063l0.003,0.05
			c1.013,0.183,2.301,0.347,3.291,0.556l3.629,0.759L30.69,104.261z"></path>
<path d="M21.358,93.757c0.009-1.239,0.167-3.062,0.507-5.055c0.419-2.461,1.083-4.122,2.219-5.144
			c0.956-0.85,2.205-1.194,3.73-0.934c2.117,0.361,3.313,2.11,3.586,3.625l0.074,0.013c0.665-1.077,1.881-1.528,3.479-1.687
			c1.958-0.198,4.212-0.346,4.907-0.557l-0.654,3.84c-0.514,0.191-1.935,0.354-4.062,0.498c-2.143,0.09-2.831,0.708-3.116,2.229
			l-0.193,1.132l6.522,1.112l-0.634,3.716L21.358,93.757z M29.129,91.258l0.252-1.477c0.319-1.871-0.427-3.138-1.879-3.385
			c-1.526-0.26-2.465,0.644-2.784,2.362c-0.155,0.911-0.169,1.44-0.167,1.719L29.129,91.258z"></path>
<path d="M37.9,77.428l3.481,2.825l-1.577,3.616L26.433,72.429l1.996-4.578l17.513,1.942l-1.637,3.754l-4.479-0.537
			L37.9,77.428z M36.997,72.377l-3.692-0.466c-1.036-0.125-2.299-0.349-3.315-0.519l-0.02,0.046
			c0.816,0.628,1.883,1.366,2.666,2.007l2.874,2.342L36.997,72.377z"></path>
<path d="M46.648,68.763L33.423,58.355l2.749-3.493l7.009,1.067c2.011,0.312,4.277,0.824,6.231,1.409l0.046-0.059
			c-1.901-1.178-3.733-2.524-5.715-4.084l-3.866-3.042l2.162-2.747l13.226,10.408l-2.471,3.14l-7.326-1.189
			c-2.03-0.327-4.417-0.807-6.477-1.379l-0.027,0.074c1.808,1.296,3.703,2.724,5.862,4.422l3.983,3.134L46.648,68.763z"></path>
<path d="M51.168,43.577l-3.543,2.806l-1.984-2.506l10.141-8.031l1.984,2.506l-3.602,2.853l8.465,10.689
			l-2.996,2.372L51.168,43.577z"></path>
<path d="M62.772,27.416l-1.175,4.182l-2.657,1.491l0.348-3.717L62.772,27.416z M62.668,32.026l8.238,14.676
			l-3.332,1.87l-8.238-14.676L62.668,32.026z"></path>
<path d="M75.381,39.907l0.274,4.474l-3.729,1.285l-0.619-17.585l4.721-1.626l10.415,14.21l-3.871,1.334
			l-2.635-3.661L75.381,39.907z M78.491,35.825l-2.154-3.034c-0.609-0.847-1.298-1.929-1.86-2.792l-0.047,0.016
			c0.089,1.025,0.268,2.311,0.326,3.321l0.219,3.701L78.491,35.825z"></path>
<path d="M92.657,23.086c1.402-0.202,3.226-0.296,5.148-0.265c3.195,0.053,5.257,0.661,6.86,1.911
			c1.727,1.327,2.791,3.417,2.741,6.388c-0.053,3.221-1.263,5.423-2.908,6.769c-1.797,1.444-4.504,2.098-7.799,2.044
			c-1.972-0.033-3.368-0.181-4.314-0.321L92.657,23.086z M96.25,36.878c0.324,0.081,0.848,0.089,1.322,0.097
			c3.444,0.082,5.723-1.778,5.789-5.797c0.083-3.494-1.934-5.375-5.204-5.429c-0.849-0.014-1.399,0.052-1.725,0.121L96.25,36.878z"></path>
<path d="M120.161,35.718l-6.024-1.438l-0.928,3.887l6.729,1.606l-0.725,3.037l-10.445-2.493l3.908-16.373
			l10.105,2.412l-0.726,3.037l-6.389-1.525l-0.812,3.401l6.024,1.438L120.161,35.718z"></path>
<path d="M137.458,44.052l-5.386-3.058l-1.973,3.474l6.015,3.415l-1.541,2.714l-9.337-5.302l8.311-14.634
			l9.032,5.129l-1.541,2.714l-5.711-3.243l-1.726,3.04l5.385,3.058L137.458,44.052z"></path>
<path d="M136.009,51.471l11.447-12.331l3.256,3.023l-1.633,6.896c-0.475,1.978-1.169,4.194-1.911,6.094
			l0.056,0.051c1.328-1.798,2.818-3.514,4.534-5.361l3.346-3.604l2.562,2.378l-11.447,12.331l-2.927-2.717l1.781-7.203
			c0.49-1.997,1.163-4.335,1.901-6.341l-0.072-0.033c-1.438,1.696-3.015,3.468-4.883,5.481l-3.448,3.714L136.009,51.471z"></path>
<path d="M160.733,58.012l-2.508-3.759l2.658-1.773l7.177,10.757l-2.658,1.773l-2.55-3.821l-11.339,7.564
			l-2.119-3.177L160.733,58.012z"></path>
<path d="M170.009,67.621c0.63,1.068,1.43,2.712,2.163,4.597c0.904,2.327,1.188,4.091,0.739,5.552
			c-0.383,1.22-1.277,2.158-2.721,2.719c-2.001,0.778-3.926-0.107-4.939-1.267l-0.069,0.027c-0.017,1.266-0.829,2.278-2.118,3.234
			c-1.578,1.176-3.436,2.461-3.923,2.999l-1.412-3.63c0.343-0.428,1.478-1.298,3.229-2.514c1.792-1.179,2.064-2.062,1.526-3.514
			l-0.416-1.07l-6.166,2.397l-1.366-3.514L170.009,67.621z M164.627,73.759l0.543,1.396c0.688,1.768,1.979,2.472,3.353,1.938
			c1.442-0.561,1.783-1.819,1.174-3.457c-0.335-0.861-0.595-1.322-0.741-1.561L164.627,73.759z"></path>
<path d="M167.841,95.519l-0.958-6.119l-3.947,0.618l1.069,6.834l-3.084,0.483l-1.66-10.61l16.63-2.602
			l1.605,10.264l-3.084,0.483l-1.015-6.489l-3.455,0.541l0.958,6.119L167.841,95.519z"></path>
<path d="M160.861,113.098c-0.313-1.2-0.697-3.456-0.534-5.672c0.226-3.063,1.16-5.223,2.768-6.657
			c1.559-1.438,3.812-2.124,6.275-1.917c5.576,0.435,8.465,4.729,8.061,10.232c-0.159,2.167-0.705,3.804-1.164,4.596l-2.979-1.02
			c0.466-0.893,0.874-2.014,1.01-3.857c0.232-3.163-1.385-5.685-5.021-5.952c-3.462-0.254-5.663,1.762-5.892,4.875
			c-0.064,0.872-0.016,1.576,0.111,1.886l3.512,0.258l0.19-2.59l2.963,0.218l-0.459,6.25L160.861,113.098z"></path>
<path d="M162.442,120.052l-3.702-2.528l1.273-3.734l14.271,10.299l-1.611,4.727l-17.614-0.49l1.321-3.876
			l4.508,0.165L162.442,120.052z M163.76,125.012l3.718,0.159c1.042,0.039,2.321,0.158,3.347,0.244l0.017-0.048
			c-0.865-0.559-1.99-1.205-2.823-1.779l-3.058-2.098L163.76,125.012z"></path>
</g>
<polygon points="97.713,162.27 100.39,167.693 106.376,168.563 102.044,172.785 103.067,178.746 97.713,175.932 
		92.36,178.746 93.383,172.785 89.052,168.563 95.037,167.693 	"></polygon>
<polygon points="122.341,156.184 125.019,161.607 131.004,162.478 126.672,166.699 127.695,172.66 122.341,169.846 
		116.988,172.66 118.011,166.699 113.681,162.478 119.665,161.607 	"></polygon>
<polygon points="146.969,143.005 149.646,148.429 155.631,149.298 151.3,153.52 152.323,159.481 146.969,156.667 
		141.616,159.481 142.639,153.52 138.308,149.298 144.292,148.429 	"></polygon>
<polygon points="48.457,143.005 51.134,148.429 57.12,149.298 52.788,153.52 53.812,159.481 48.457,156.667 
		43.104,159.481 44.126,153.52 39.796,149.298 45.781,148.429 	"></polygon>
<polygon points="73.084,156.184 75.762,161.607 81.747,162.478 77.416,166.699 78.439,172.66 73.084,169.846 
		67.732,172.66 68.754,166.699 64.424,162.478 70.408,161.607 	"></polygon>
<rect x="66.886" y="101.886" transform="matrix(0.7071 0.7071 -0.7071 0.7071 102.0555 -27.3658)" width="34.357" height="15.266"></rect>
<rect x="76.927" y="93.536" transform="matrix(-0.7071 0.7071 -0.7071 -0.7071 252.3363 97.8088)" width="57.965" height="15.265"></rect>
<path d="M196.657,92.566c3.188-5.005,1.943-12.059-2.766-15.674c-4.708-3.615-7.51-11.313-6.227-17.106
		c1.284-5.793-2.296-11.995-7.952-13.782c-5.657-1.787-10.923-8.061-11.7-13.943c-0.778-5.882-6.267-10.486-12.197-10.232
		s-13.024-3.843-15.764-9.104c-2.74-5.262-9.47-7.71-14.952-5.441c-5.483,2.269-13.552,0.847-17.93-3.16
		c-4.379-4.007-11.539-4.007-15.917,0c-4.375,4.007-12.444,5.429-17.927,3.16c-5.484-2.27-12.212,0.179-14.952,5.441
		c-2.741,5.261-9.833,9.358-15.765,9.104c-5.929-0.254-11.418,4.351-12.196,10.232c-0.778,5.882-6.043,12.157-11.701,13.943
		c-5.657,1.787-9.236,7.989-7.954,13.782c1.285,5.793-1.518,13.491-6.226,17.106c-4.708,3.615-5.954,10.668-2.766,15.674
		c3.186,5.006,3.186,13.199,0,18.208c-3.188,5.006-1.943,12.063,2.766,15.678c4.708,3.614,7.511,11.313,6.226,17.105
		c-1.282,5.795,2.296,11.996,7.954,13.782s10.922,8.062,11.701,13.943c0.778,5.883,6.267,10.487,12.196,10.233
		c5.932-0.254,13.024,3.843,15.765,9.104c2.739,5.262,9.467,7.71,14.952,5.441c5.483-2.269,13.552-0.847,17.927,3.161
		c4.378,4.007,11.538,4.007,15.917,0c4.378-4.008,12.446-5.43,17.93-3.161c5.482,2.269,12.212-0.18,14.952-5.441
		c2.739-5.261,9.833-9.357,15.764-9.104s11.419-4.351,12.197-10.233c0.777-5.882,6.043-12.157,11.7-13.943
		c5.656-1.786,9.236-7.987,7.952-13.782c-1.283-5.793,1.519-13.491,6.227-17.105c4.709-3.615,5.953-10.672,2.766-15.678
		C193.471,105.765,193.471,97.572,196.657,92.566z M99.3,187.134c-47.41,0-85.847-38.434-85.847-85.848
		c0-47.412,38.437-85.847,85.847-85.847c47.411,0,85.843,38.435,85.843,85.847C185.144,148.7,146.711,187.134,99.3,187.134z"></path>
<polygon points="132.679,237.544 99.114,213.472 65.746,237.544 65.746,189.4 132.679,189.4 	"></polygon>
</g>
</svg>